<svg xmlns="http://www.w3.org/2000/svg" width="33.243" height="28.015" viewBox="0 0 33.243 28.015"><g transform="translate(0 -36.827)"><path d="M14.627,39.365V38.157a1.33,1.33,0,0,0-1.33-1.33H1.33A1.33,1.33,0,0,0,0,38.157v7.826H33.243v-4.4a1.33,1.33,0,0,0-1.33-1.33h-16.4A.886.886,0,0,1,14.627,39.365Z" transform="translate(0)" fill="#f6c358"/><path d="M31.47,145.721H1.773A1.773,1.773,0,0,1,0,143.948v-17.4H14.677a1.33,1.33,0,0,0,.983-.434l1.634-1.792a1.33,1.33,0,0,1,.983-.434H33.243v20.061A1.773,1.773,0,0,1,31.47,145.721Z" transform="translate(0 -80.88)" fill="#fcd462"/></g></svg>