<svg xmlns="http://www.w3.org/2000/svg" width="24.956" height="33.568" viewBox="0 0 24.956 33.568"><g transform="translate(-948.195 -649.489)"><path d="M968.042,683.057H953.3a5.108,5.108,0,0,1-5.108-5.108V654.6a5.108,5.108,0,0,1,5.108-5.108h12.8l7.045,7.076v21.384A5.108,5.108,0,0,1,968.042,683.057Z" transform="translate(0 0)" fill="#9954a1"/><path d="M1006.09,656.567h-5.6a1.438,1.438,0,0,1-1.438-1.435l-.012-5.643" transform="translate(-32.939 0)" fill="#fff" opacity="0.5"/><path d="M976.053,684.235a.4.4,0,0,0-.317-.1l-7.216.949a.4.4,0,0,0-.348.4v7.791a2.739,2.739,0,0,0-1.8-.661,2.372,2.372,0,1,0,2.606,2.361v-7.135l6.414-.844v4.17a2.67,2.67,0,0,0-1.735-.626,2.31,2.31,0,1,0,2.536,2.3v-8.3A.4.4,0,0,0,976.053,684.235Z" transform="translate(-10.084 -22.444)" fill="#fff"/></g></svg>