<svg xmlns="http://www.w3.org/2000/svg" width="17.691" height="23.796" viewBox="0 0 17.691 23.796">
  <g id="doc" transform="translate(-764.574 -260.925)">
    <path id="Path_87" data-name="Path 87" d="M778.644,284.721H768.2a3.621,3.621,0,0,1-3.621-3.621V264.546a3.621,3.621,0,0,1,3.621-3.621h9.076l4.994,5.016V281.1A3.621,3.621,0,0,1,778.644,284.721Z" fill="#5380c0"/>
    <path id="Path_88" data-name="Path 88" d="M820.419,265.943h-3.967a1.019,1.019,0,0,1-1.019-1.017l-.008-4" transform="translate(-38.154)" fill="#fff" opacity="0.5"/>
    <path id="Path_147" data-name="Path 147" d="M-2.023-1.819a1.758,1.758,0,0,1-.5,1.35A2.046,2.046,0,0,1-3.973,0H-4.984V-3.569h1.121a1.887,1.887,0,0,1,1.357.461A1.7,1.7,0,0,1-2.023-1.819Zm-.786.02q0-1.15-1.016-1.15h-.4V-.625H-3.9Q-2.809-.625-2.809-1.8Zm4.766.01A1.937,1.937,0,0,1,1.517-.427,1.629,1.629,0,0,1,.258.049,1.629,1.629,0,0,1-1-.427a1.944,1.944,0,0,1-.439-1.367A1.918,1.918,0,0,1-1-3.156a1.648,1.648,0,0,1,1.263-.47,1.625,1.625,0,0,1,1.259.474A1.942,1.942,0,0,1,1.957-1.79Zm-2.6,0a1.491,1.491,0,0,0,.227.9.794.794,0,0,0,.679.3q.906,0,.906-1.2T.262-3a.8.8,0,0,0-.681.3A1.485,1.485,0,0,0-.648-1.79Zm4.861-1.2a.771.771,0,0,0-.662.321,1.494,1.494,0,0,0-.234.895q0,1.194.9,1.194a2.832,2.832,0,0,0,.911-.188v.635a2.529,2.529,0,0,1-.981.183A1.5,1.5,0,0,1,2.95-.424,2,2,0,0,1,2.538-1.78a2.215,2.215,0,0,1,.2-.975A1.465,1.465,0,0,1,3.323-3.4a1.723,1.723,0,0,1,.89-.223,2.4,2.4,0,0,1,1.045.251l-.244.615a4.041,4.041,0,0,0-.4-.166A1.2,1.2,0,0,0,4.213-2.991Z" transform="translate(772.602 275.096)" fill="#fff"/>
  </g>
</svg>
