<svg xmlns="http://www.w3.org/2000/svg" width="17.635" height="23.721" viewBox="0 0 17.635 23.721">
  <g id="excel" transform="translate(-948.195 -260.925)">
    <path id="Path_89" data-name="Path 89" d="M962.221,284.646H951.8a3.609,3.609,0,0,1-3.61-3.609v-16.5a3.609,3.609,0,0,1,3.61-3.61h9.047l4.978,5v15.111A3.609,3.609,0,0,1,962.221,284.646Z" transform="translate(0)" fill="#00ac54"/>
    <path id="Path_90" data-name="Path 90" d="M1004.023,265.927h-3.954a1.016,1.016,0,0,1-1.016-1.014l-.008-3.988" transform="translate(-38.193)" fill="#fff" opacity="0.5"/>
    <path id="Path_149" data-name="Path 149" d="M-1.346,0H-2.383l-1-1.62-1,1.62h-.973l1.421-2.209-1.33-2.074h1l.923,1.541.905-1.541h.979L-2.793-2.159Zm.539,0V-4.283H.1V-.75H1.838V0ZM5.111-1.189a1.107,1.107,0,0,1-.417.914A1.814,1.814,0,0,1,3.532.059,2.728,2.728,0,0,1,2.319-.2v-.844a5,5,0,0,0,.734.272A2.172,2.172,0,0,0,3.6-.691a.781.781,0,0,0,.458-.114.391.391,0,0,0,.16-.34.375.375,0,0,0-.07-.224.787.787,0,0,0-.207-.189,5.312,5.312,0,0,0-.555-.29A2.631,2.631,0,0,1,2.8-2.2a1.331,1.331,0,0,1-.313-.4,1.129,1.129,0,0,1-.117-.527,1.107,1.107,0,0,1,.385-.894,1.6,1.6,0,0,1,1.065-.325,2.515,2.515,0,0,1,.637.079,4.38,4.38,0,0,1,.634.223L4.8-3.337a4.286,4.286,0,0,0-.567-.2,1.825,1.825,0,0,0-.441-.056.584.584,0,0,0-.4.12.4.4,0,0,0-.138.313.388.388,0,0,0,.056.209.612.612,0,0,0,.177.173,5.48,5.48,0,0,0,.576.3,2.291,2.291,0,0,1,.823.576A1.124,1.124,0,0,1,5.111-1.189Z" transform="translate(956.209 274.068)" fill="#fff"/>
  </g>
</svg>
