<svg xmlns="http://www.w3.org/2000/svg" width="21.585" height="18.19" viewBox="0 0 21.585 18.19">
  <g id="folder" transform="translate(0 -36.827)">
    <path id="Path_145" data-name="Path 145" d="M9.5,38.475V37.69a.863.863,0,0,0-.863-.863H.863A.863.863,0,0,0,0,37.69v5.082H21.585V39.914a.863.863,0,0,0-.863-.863H10.073A.576.576,0,0,1,9.5,38.475Z" transform="translate(0)" fill="#f6c358"/>
    <path id="Path_146" data-name="Path 146" d="M20.434,138.064H1.151A1.151,1.151,0,0,1,0,136.913v-11.3H9.53a.863.863,0,0,0,.638-.282l1.061-1.163a.863.863,0,0,1,.638-.282h9.719v13.026A1.151,1.151,0,0,1,20.434,138.064Z" transform="translate(0 -83.047)" fill="#fcd462"/>
  </g>
</svg>
