<svg xmlns="http://www.w3.org/2000/svg" width="17.282" height="23.247" viewBox="0 0 17.282 23.247"><g transform="translate(-948.195 -649.489)"><path d="M961.94,672.736H951.732A3.537,3.537,0,0,1,948.2,669.2V653.026a3.537,3.537,0,0,1,3.537-3.537H960.6l4.879,4.9V669.2A3.537,3.537,0,0,1,961.94,672.736Z" transform="translate(0 0)" fill="#9954a1"/><path d="M1003.924,654.391h-3.875a1,1,0,0,1-1-.994l-.008-3.908" transform="translate(-38.447 0)" fill="#fff" opacity="0.5"/><path d="M972.274,684.2a.278.278,0,0,0-.219-.066l-5,.657a.277.277,0,0,0-.241.275v5.4a1.9,1.9,0,0,0-1.249-.458,1.643,1.643,0,1,0,1.8,1.635V686.7l4.442-.584v2.888a1.849,1.849,0,0,0-1.2-.433,1.6,1.6,0,1,0,1.756,1.592v-5.751A.277.277,0,0,0,972.274,684.2Z" transform="translate(-11.77 -26.196)" fill="#fff"/></g></svg>