<svg xmlns="http://www.w3.org/2000/svg" width="17.691" height="23.796" viewBox="0 0 17.691 23.796">
  <g id="pdf" transform="translate(-397.334 -260.925)">
    <path id="Path_85" data-name="Path 85" d="M411.4,284.721H400.955a3.621,3.621,0,0,1-3.621-3.621V264.546a3.621,3.621,0,0,1,3.621-3.621h9.076l4.994,5.017V281.1A3.621,3.621,0,0,1,411.4,284.721Z" fill="#ee3e2c"/>
    <path id="Path_86" data-name="Path 86" d="M453.178,265.943h-3.966a1.019,1.019,0,0,1-1.02-1.017l-.008-4" transform="translate(-38.153)" fill="#fff" opacity="0.5"/>
    <path id="Path_148" data-name="Path 148" d="M.965-1.512h.2a.663.663,0,0,0,.418-.11.386.386,0,0,0,.139-.321A.4.4,0,0,0,1.6-2.258a.545.545,0,0,0-.364-.1H.965Zm1.367-.453a.873.873,0,0,1-.288.705,1.232,1.232,0,0,1-.819.244H.965V0H.359V-2.855h.912a1.213,1.213,0,0,1,.79.224A.815.815,0,0,1,2.332-1.965Zm3.508.51a1.406,1.406,0,0,1-.4,1.08A1.637,1.637,0,0,1,4.28,0H3.471V-2.855h.9a1.51,1.51,0,0,1,1.086.369A1.358,1.358,0,0,1,5.84-1.455Zm-.629.016q0-.92-.812-.92H4.077V-.5h.26Q5.211-.5,5.211-1.439ZM7.628,0h-.6V-2.855H8.669v.5H7.628v.736H8.6v.494H7.628Z" transform="translate(400.362 274.096)" fill="#fff"/>
  </g>
</svg>
