<svg xmlns="http://www.w3.org/2000/svg" width="17.282" height="23.247" viewBox="0 0 17.282 23.247"><g transform="translate(-214.398 -650.489)"><path d="M228.143,673.736H217.935A3.537,3.537,0,0,1,214.4,670.2V654.026a3.537,3.537,0,0,1,3.537-3.537H226.8l4.879,4.9V670.2A3.537,3.537,0,0,1,228.143,673.736Z" fill="#00ab54"/><path d="M269.636,655.391h-3.875a1,1,0,0,1-1-.994l-.008-3.908" transform="translate(-37.956)" fill="#fff" opacity="0.5"/><g transform="translate(217.785 660.725)"><path d="M228.151,702.3l2.55-3.782,2.235,2.35,2.739-4.987,3.305,6.419Z" transform="translate(-228.151 -694.937)" fill="#fff"/><circle cx="0.787" cy="0.787" r="0.787" transform="translate(0.693 0)" fill="#fff"/></g></g></svg>