<svg xmlns="http://www.w3.org/2000/svg" width="17.591" height="23.662" viewBox="0 0 17.591 23.662"><g transform="translate(-580.954 -260.925)"><path d="M594.944,284.587h-10.39a3.6,3.6,0,0,1-3.6-3.6V264.525a3.6,3.6,0,0,1,3.6-3.6h9.024l4.966,4.988v15.073A3.6,3.6,0,0,1,594.944,284.587Z" transform="translate(0 0)" fill="#5380c0"/><path d="M636.77,265.914h-3.944a1.013,1.013,0,0,1-1.013-1.011l-.008-3.978" transform="translate(-38.225 0)" fill="#fff" opacity="0.5"/><g transform="translate(583.998 270.152)"><line x2="11.502" transform="translate(0 0)" fill="none" stroke="#fff" stroke-miterlimit="10" stroke-width="1"/><line x2="11.502" transform="translate(0 2.354)" fill="none" stroke="#fff" stroke-miterlimit="10" stroke-width="1"/><line x2="5.751" transform="translate(0 5.032)" fill="none" stroke="#fff" stroke-miterlimit="10" stroke-width="1"/></g></g></svg>