<svg xmlns="http://www.w3.org/2000/svg" width="17.876" height="24.046" viewBox="0 0 17.876 24.046"><g transform="translate(-580.954 -843.771)"><path d="M595.171,867.817H584.613a3.659,3.659,0,0,1-3.659-3.659V847.43a3.659,3.659,0,0,1,3.659-3.659h9.171l5.046,5.069v15.318A3.659,3.659,0,0,1,595.171,867.817Z" fill="#f9b617"/><path d="M636.85,848.841h-4.008a1.03,1.03,0,0,1-1.03-1.028l-.009-4.042" transform="translate(-38.02)" fill="#fff" opacity="0.5"/><circle cx="1.5" cy="1.5" r="1.5" transform="translate(584 854.146)" fill="#fff"/><circle cx="1.5" cy="1.5" r="1.5" transform="translate(588 854.146)" fill="#fff"/><circle cx="1.5" cy="1.5" r="1.5" transform="translate(592 854.146)" fill="#fff"/></g></svg>