<svg xmlns="http://www.w3.org/2000/svg" width="17.282" height="23.247" viewBox="0 0 17.282 23.247"><g transform="translate(-213.713 -455.207)"><path d="M227.458,478.454H217.25a3.537,3.537,0,0,1-3.537-3.537V458.744a3.537,3.537,0,0,1,3.537-3.537h8.866l4.879,4.9v14.809A3.537,3.537,0,0,1,227.458,478.454Z" transform="translate(0 0)" fill="#809bbe"/><path d="M269.443,460.109h-3.875a1,1,0,0,1-1-.994l-.008-3.908" transform="translate(-38.447 0)" fill="#fff" opacity="0.5"/><path d="M244.415,496.876l-4.256-2.971a.154.154,0,0,0-.243.127v5.943a.154.154,0,0,0,.243.127l4.256-2.971A.154.154,0,0,0,244.415,496.876Z" transform="translate(-19.812 -29.238)" fill="#e6eaf1"/></g></svg>