<svg xmlns="http://www.w3.org/2000/svg" width="17.635" height="23.721" viewBox="0 0 17.635 23.721"><g transform="translate(-1131.815 -455.207)"><path d="M1145.84,478.928h-10.416a3.61,3.61,0,0,1-3.61-3.61v-16.5a3.61,3.61,0,0,1,3.61-3.61h9.047l4.978,5v15.111A3.609,3.609,0,0,1,1145.84,478.928Z" transform="translate(0 0)" fill="#596c89"/><path d="M1187.643,460.209h-3.954a1.016,1.016,0,0,1-1.016-1.014l-.008-3.988" transform="translate(-38.193 0)" fill="#fff" opacity="0.5"/><g transform="translate(1139.204 455.207)"><rect width="1.157" height="1.157" fill="#fff"/><rect width="1.157" height="1.157" transform="translate(1.157 1.157)" fill="#fff"/><rect width="1.157" height="1.157" transform="translate(0 2.314)" fill="#fff"/><rect width="1.157" height="1.157" transform="translate(1.157 3.47)" fill="#fff"/><rect width="1.157" height="1.157" transform="translate(0 4.627)" fill="#fff"/><rect width="1.157" height="1.157" transform="translate(1.157 5.784)" fill="#fff"/><rect width="1.157" height="1.157" transform="translate(0 6.941)" fill="#fff"/><rect width="1.157" height="1.157" transform="translate(1.157 8.098)" fill="#fff"/><rect width="1.157" height="1.157" transform="translate(0 9.255)" fill="#fff"/><rect width="1.157" height="1.157" transform="translate(1.157 10.411)" fill="#fff"/><rect width="2.314" height="3.226" transform="translate(0 11.568)" fill="#fff"/><rect width="1.157" height="1.157" transform="translate(0.578 13.181)" fill="#a1bedf"/></g></g></svg>