<svg xmlns="http://www.w3.org/2000/svg" width="18.283" height="15.472" viewBox="0 0 18.283 15.472"><path d="M16.03,42.173H10.243a.874.874,0,0,1-.623-.26l-1.806-1.9a2.288,2.288,0,0,0-1.629-.655H2.253A2.255,2.255,0,0,0,0,41.608V52.575a2.255,2.255,0,0,0,2.253,2.253H16.04a2.255,2.255,0,0,0,2.242-2.26V44.426A2.255,2.255,0,0,0,16.03,42.173Zm.875,10.4a.876.876,0,0,1-.868.879H2.253a.876.876,0,0,1-.875-.875V41.608a.877.877,0,0,1,.875-.876H6.227a.869.869,0,0,1,.6.24l1.8,1.893a2.263,2.263,0,0,0,1.617.685H16.03a.876.876,0,0,1,.875.875v8.145Z" transform="translate(0 -39.356)" fill="#fff"/></svg>