<svg xmlns="http://www.w3.org/2000/svg" width="30.971" height="34.117" viewBox="0 0 30.971 34.117"><path d="M109.672,309.9a5.393,5.393,0,0,0-3.774,1.822.7.7,0,0,1-.494.286h0a.7.7,0,0,1-.494-.286,5.358,5.358,0,0,0-3.774-1.822c-2.264,0-3.435,2-3.435,3.982a7.752,7.752,0,0,0,15.407-.026C113.107,311.9,111.91,309.9,109.672,309.9Zm-8.641,5.1a.911.911,0,1,1,.911-.911A.905.905,0,0,1,101.031,315Zm4.424,1.8a2.835,2.835,0,0,1-.885-1.822c0-1.015.39-1.822.885-1.822s.885.807.885,1.822A2.835,2.835,0,0,1,105.456,316.8Zm3.7-1.8a.911.911,0,1,1,.911-.911A.905.905,0,0,1,109.151,315Z" transform="translate(-89.32 -305.245)" fill="none"/><path d="M108.511,348.833A8.734,8.734,0,0,1,101.9,346.1a24.129,24.129,0,0,0,6.559,15.043,24.163,24.163,0,0,0,6.559-14.991A8.693,8.693,0,0,1,108.511,348.833Z" transform="translate(-92.427 -332.023)" fill="none"/><path d="M96.5,298.926l1.614,1.718a.62.62,0,0,1,.156.286,4.343,4.343,0,0,1,1.978-.442,6.4,6.4,0,0,1,4.268,1.744,6.532,6.532,0,0,1,4.268-1.744,5.274,5.274,0,0,1,1.327.182c0-.026.026-.026.026-.052l1.614-1.718a40.7,40.7,0,0,1-7.626,1.3A36.738,36.738,0,0,1,96.5,298.926Z" transform="translate(-88.432 -297.108)" fill="none"/><path d="M144.553,366.888c2.889-3.227,2.577-7.756,2-10.488a24.972,24.972,0,0,1-3.357,9A4.008,4.008,0,0,0,144.553,366.888Z" transform="translate(-122.978 -339.643)" fill="none"/><path d="M99.223,367.184a3.949,3.949,0,0,0,1.327-1.431,25.665,25.665,0,0,1-3.357-8.953C96.646,359.533,96.36,363.983,99.223,367.184Z" transform="translate(-88.682 -339.939)" fill="none"/><path d="M107.863,322.3a.963.963,0,1,0,.963.963A.945.945,0,0,0,107.863,322.3Z" transform="translate(-96.125 -314.417)" fill="#eec223"/><path d="M140.163,322.3a.963.963,0,1,0,.963.963A.945.945,0,0,0,140.163,322.3Z" transform="translate(-120.019 -314.417)" fill="#eec223"/><path d="M124.985,322.4c-.494,0-.885.807-.885,1.822a2.835,2.835,0,0,0,.885,1.822,2.835,2.835,0,0,0,.885-1.822C125.87,323.207,125.479,322.4,124.985,322.4Z" transform="translate(-108.849 -314.491)" fill="#eec223"/><path d="M106.837,292.322a.646.646,0,0,0-.7-.286c-.078.026-6.585,1.822-9.447,1.822-2.837,0-9.369-1.8-9.447-1.822a.616.616,0,0,0-.7.286.629.629,0,0,0,.078.755l3.123,3.331.078.078a5.662,5.662,0,0,0-1.77,4.164,7.756,7.756,0,0,0,1.067,3.618c0,.052-.026.078-.026.13,0,.442.026.859.026,1.275a1.443,1.443,0,0,0-.156.208,20.676,20.676,0,0,0-1.119,5.153c-.286,3.878.755,7.131,2.993,9.4a.61.61,0,0,0,.442.182h.1a3.676,3.676,0,0,0,2.134-1.666,18.789,18.789,0,0,0,2.993,3.514.025.025,0,0,1,.026.026.091.091,0,0,0,.052.026c.026.026.052.026.078.052.026,0,.026.026.052.026s.052.026.078.026l.026.052c.052,0,.078.052.13.052h-.026v-.078H97.1c.026,0,.052-.026.078-.026a.081.081,0,0,0,.052-.026c.026,0,.052-.026.078-.052l.026-.026a.025.025,0,0,0,.026-.026,20.252,20.252,0,0,0,3.019-3.54,3.808,3.808,0,0,0,2.16,1.692h.1a.679.679,0,0,0,.442-.182c2.238-2.264,3.279-5.517,2.993-9.4a17.73,17.73,0,0,0-1.119-5.153.567.567,0,0,0-.182-.234c.026-.416.026-.833.026-1.249V304.4a7.877,7.877,0,0,0,1.119-3.7,5.5,5.5,0,0,0-2.186-4.5l2.889-3.071A.587.587,0,0,0,106.837,292.322Zm-15.3,26.937c-2.863-3.175-2.577-7.652-2-10.384a24.866,24.866,0,0,0,3.357,8.953A4.444,4.444,0,0,1,91.534,319.259Zm5.491,1.874a24.129,24.129,0,0,1-6.559-15.043,9.331,9.331,0,0,0,13.143.052A24.143,24.143,0,0,1,97.026,321.132Zm5.544-1.874a3.871,3.871,0,0,1-1.353-1.457,25.463,25.463,0,0,0,3.357-9C105.146,311.5,105.458,316.031,102.569,319.259Zm2.212-18.608a7.765,7.765,0,0,1-15.433,0c0-1.978,1.171-3.982,3.435-3.982a5.393,5.393,0,0,1,3.774,1.822.7.7,0,0,0,.494.286h0a.7.7,0,0,0,.494-.286,5.358,5.358,0,0,1,3.774-1.822C103.584,296.694,104.781,298.672,104.781,300.65Zm-2.082-5.1a.091.091,0,0,0-.026.052,4.424,4.424,0,0,0-1.327-.182,6.4,6.4,0,0,0-4.268,1.744,6.532,6.532,0,0,0-4.268-1.744,4.423,4.423,0,0,0-1.978.442.62.62,0,0,0-.156-.286l-1.614-1.718a40.7,40.7,0,0,0,7.626,1.3,40.348,40.348,0,0,0,7.626-1.3Z" transform="translate(-80.994 -292.013)" fill="#eec223"/><path d="M91.109,320.6a.629.629,0,0,0,0,.911,14.209,14.209,0,1,1-19.988-.26.644.644,0,0,0-.885-.937,15.474,15.474,0,1,0,21.784.26A.653.653,0,0,0,91.109,320.6Z" transform="translate(-65.5 -312.817)" fill="#eec223"/></svg>