<svg id="resize" xmlns="http://www.w3.org/2000/svg" width="15.52" height="15.52" viewBox="0 0 15.52 15.52">
  <g id="Group_105" data-name="Group 105" transform="translate(8.413)">
    <g id="Group_104" data-name="Group 104">
      <path id="Path_147" data-name="Path 147" d="M284.037,0h-4.48a.606.606,0,0,0,0,1.213h3.016l-4.86,4.86a.606.606,0,1,0,.857.857l4.86-4.86V5.086a.606.606,0,1,0,1.213,0V.606A.607.607,0,0,0,284.037,0Z" transform="translate(-277.536)" fill="#fff"/>
    </g>
  </g>
  <g id="Group_107" data-name="Group 107" transform="translate(0 8.413)">
    <g id="Group_106" data-name="Group 106">
      <path id="Path_148" data-name="Path 148" d="M6.93,277.714a.606.606,0,0,0-.857,0l-4.86,4.86v-3.016a.606.606,0,0,0-1.213,0v4.48a.608.608,0,0,0,.606.606h4.48a.606.606,0,1,0,0-1.213H2.07l4.86-4.86A.606.606,0,0,0,6.93,277.714Z" transform="translate(0 -277.536)" fill="#fff"/>
    </g>
  </g>
</svg>
